<mxfile host="Electron" modified="2024-02-27T19:22:57.398Z" agent="Mozilla/5.0 (Windows NT 10.0; Win64; x64) AppleWebKit/537.36 (KHTML, like Gecko) draw.io/23.1.5 Chrome/120.0.6099.109 Electron/28.1.0 Safari/537.36" etag="TtLRBe5oLCbVvXfzQ_zN" version="23.1.5" type="device">
  <diagram name="Страница — 1" id="qjwJX1G-pQkbt9RO5JUu">
    <mxGraphModel dx="658" dy="494" grid="1" gridSize="10" guides="1" tooltips="1" connect="1" arrows="1" fold="1" page="1" pageScale="1" pageWidth="827" pageHeight="1169" math="0" shadow="0">
      <root>
        <mxCell id="0" />
        <mxCell id="1" parent="0" />
        <mxCell id="G8gflZm_HVs2Sd7vuM_G-1" value="" style="rounded=0;whiteSpace=wrap;html=1;fontFamily=Times New Roman;fontSize=14;" vertex="1" parent="1">
          <mxGeometry x="280" y="320" width="200" height="80" as="geometry" />
        </mxCell>
        <mxCell id="G8gflZm_HVs2Sd7vuM_G-2" value="" style="endArrow=classic;html=1;rounded=0;entryX=0;entryY=0.5;entryDx=0;entryDy=0;fontFamily=Times New Roman;fontSize=14;" edge="1" parent="1" target="G8gflZm_HVs2Sd7vuM_G-1">
          <mxGeometry width="50" height="50" relative="1" as="geometry">
            <mxPoint x="160" y="360" as="sourcePoint" />
            <mxPoint x="240" y="360" as="targetPoint" />
          </mxGeometry>
        </mxCell>
        <mxCell id="G8gflZm_HVs2Sd7vuM_G-8" value="H(X)" style="edgeLabel;html=1;align=center;verticalAlign=middle;resizable=0;points=[];fontFamily=Times New Roman;fontSize=14;" vertex="1" connectable="0" parent="G8gflZm_HVs2Sd7vuM_G-2">
          <mxGeometry x="-0.0167" y="1" relative="1" as="geometry">
            <mxPoint y="-9" as="offset" />
          </mxGeometry>
        </mxCell>
        <mxCell id="G8gflZm_HVs2Sd7vuM_G-3" value="" style="endArrow=classic;html=1;rounded=0;exitX=1;exitY=0.5;exitDx=0;exitDy=0;fontFamily=Times New Roman;fontSize=14;" edge="1" parent="1" source="G8gflZm_HVs2Sd7vuM_G-1">
          <mxGeometry width="50" height="50" relative="1" as="geometry">
            <mxPoint x="390" y="390" as="sourcePoint" />
            <mxPoint x="600" y="360" as="targetPoint" />
          </mxGeometry>
        </mxCell>
        <mxCell id="G8gflZm_HVs2Sd7vuM_G-9" value="H(Y)" style="edgeLabel;html=1;align=center;verticalAlign=middle;resizable=0;points=[];fontFamily=Times New Roman;fontSize=14;" vertex="1" connectable="0" parent="G8gflZm_HVs2Sd7vuM_G-3">
          <mxGeometry x="-0.0333" y="-2" relative="1" as="geometry">
            <mxPoint y="-12" as="offset" />
          </mxGeometry>
        </mxCell>
        <mxCell id="G8gflZm_HVs2Sd7vuM_G-4" value="" style="endArrow=classic;html=1;rounded=0;exitX=0;exitY=0.5;exitDx=0;exitDy=0;entryX=1;entryY=0.5;entryDx=0;entryDy=0;elbow=horizontal;fontFamily=Times New Roman;fontSize=14;" edge="1" parent="1" source="G8gflZm_HVs2Sd7vuM_G-1" target="G8gflZm_HVs2Sd7vuM_G-1">
          <mxGeometry width="50" height="50" relative="1" as="geometry">
            <mxPoint x="390" y="390" as="sourcePoint" />
            <mxPoint x="440" y="340" as="targetPoint" />
          </mxGeometry>
        </mxCell>
        <mxCell id="G8gflZm_HVs2Sd7vuM_G-12" value="I(X,Y)" style="edgeLabel;html=1;align=center;verticalAlign=middle;resizable=0;points=[];fontFamily=Times New Roman;fontSize=14;" vertex="1" connectable="0" parent="G8gflZm_HVs2Sd7vuM_G-4">
          <mxGeometry x="0.26" y="2" relative="1" as="geometry">
            <mxPoint x="-26" y="-8" as="offset" />
          </mxGeometry>
        </mxCell>
        <mxCell id="G8gflZm_HVs2Sd7vuM_G-6" value="" style="endArrow=classic;html=1;rounded=0;fontFamily=Times New Roman;fontSize=14;" edge="1" parent="1">
          <mxGeometry width="50" height="50" relative="1" as="geometry">
            <mxPoint x="280" y="360" as="sourcePoint" />
            <mxPoint x="400" y="240" as="targetPoint" />
            <Array as="points">
              <mxPoint x="320" y="320" />
              <mxPoint x="360" y="280" />
            </Array>
          </mxGeometry>
        </mxCell>
        <mxCell id="G8gflZm_HVs2Sd7vuM_G-10" value="H(X/Y)" style="edgeLabel;html=1;align=center;verticalAlign=middle;resizable=0;points=[];fontFamily=Times New Roman;fontSize=14;" vertex="1" connectable="0" parent="G8gflZm_HVs2Sd7vuM_G-6">
          <mxGeometry x="0.1111" y="-2" relative="1" as="geometry">
            <mxPoint x="32" y="-5" as="offset" />
          </mxGeometry>
        </mxCell>
        <mxCell id="G8gflZm_HVs2Sd7vuM_G-7" value="" style="endArrow=classic;html=1;rounded=0;entryX=1;entryY=0.5;entryDx=0;entryDy=0;fontFamily=Times New Roman;fontSize=14;" edge="1" parent="1" target="G8gflZm_HVs2Sd7vuM_G-1">
          <mxGeometry width="50" height="50" relative="1" as="geometry">
            <mxPoint x="360" y="480" as="sourcePoint" />
            <mxPoint x="405" y="430" as="targetPoint" />
          </mxGeometry>
        </mxCell>
        <mxCell id="G8gflZm_HVs2Sd7vuM_G-11" value="H(Y/X)" style="edgeLabel;html=1;align=center;verticalAlign=middle;resizable=0;points=[];fontFamily=Times New Roman;fontSize=14;" vertex="1" connectable="0" parent="G8gflZm_HVs2Sd7vuM_G-7">
          <mxGeometry x="-0.2472" y="-1" relative="1" as="geometry">
            <mxPoint x="14" y="15" as="offset" />
          </mxGeometry>
        </mxCell>
        <mxCell id="G8gflZm_HVs2Sd7vuM_G-13" value="" style="rounded=0;whiteSpace=wrap;html=1;fontFamily=Times New Roman;fontSize=14;" vertex="1" parent="1">
          <mxGeometry x="280" y="580" width="200" height="80" as="geometry" />
        </mxCell>
        <mxCell id="G8gflZm_HVs2Sd7vuM_G-14" value="" style="endArrow=classic;html=1;rounded=0;entryX=0;entryY=0.5;entryDx=0;entryDy=0;fontFamily=Times New Roman;fontSize=14;" edge="1" parent="1" target="G8gflZm_HVs2Sd7vuM_G-13">
          <mxGeometry width="50" height="50" relative="1" as="geometry">
            <mxPoint x="160" y="620" as="sourcePoint" />
            <mxPoint x="240" y="620" as="targetPoint" />
          </mxGeometry>
        </mxCell>
        <mxCell id="G8gflZm_HVs2Sd7vuM_G-15" value="1,509932 бит" style="edgeLabel;html=1;align=center;verticalAlign=middle;resizable=0;points=[];fontFamily=Times New Roman;fontSize=14;" vertex="1" connectable="0" parent="G8gflZm_HVs2Sd7vuM_G-14">
          <mxGeometry x="-0.0167" y="1" relative="1" as="geometry">
            <mxPoint y="-9" as="offset" />
          </mxGeometry>
        </mxCell>
        <mxCell id="G8gflZm_HVs2Sd7vuM_G-16" value="" style="endArrow=classic;html=1;rounded=0;exitX=1;exitY=0.5;exitDx=0;exitDy=0;fontFamily=Times New Roman;fontSize=14;" edge="1" parent="1" source="G8gflZm_HVs2Sd7vuM_G-13">
          <mxGeometry width="50" height="50" relative="1" as="geometry">
            <mxPoint x="390" y="650" as="sourcePoint" />
            <mxPoint x="600" y="620" as="targetPoint" />
          </mxGeometry>
        </mxCell>
        <mxCell id="G8gflZm_HVs2Sd7vuM_G-17" value="1,939494 бит" style="edgeLabel;html=1;align=center;verticalAlign=middle;resizable=0;points=[];fontFamily=Times New Roman;fontSize=14;" vertex="1" connectable="0" parent="G8gflZm_HVs2Sd7vuM_G-16">
          <mxGeometry x="-0.0333" y="-2" relative="1" as="geometry">
            <mxPoint y="-12" as="offset" />
          </mxGeometry>
        </mxCell>
        <mxCell id="G8gflZm_HVs2Sd7vuM_G-18" value="" style="endArrow=classic;html=1;rounded=0;exitX=0;exitY=0.5;exitDx=0;exitDy=0;entryX=1;entryY=0.5;entryDx=0;entryDy=0;elbow=horizontal;fontFamily=Times New Roman;fontSize=14;" edge="1" parent="1" source="G8gflZm_HVs2Sd7vuM_G-13" target="G8gflZm_HVs2Sd7vuM_G-13">
          <mxGeometry width="50" height="50" relative="1" as="geometry">
            <mxPoint x="390" y="650" as="sourcePoint" />
            <mxPoint x="440" y="600" as="targetPoint" />
          </mxGeometry>
        </mxCell>
        <mxCell id="G8gflZm_HVs2Sd7vuM_G-19" value="0,21596 бит" style="edgeLabel;html=1;align=center;verticalAlign=middle;resizable=0;points=[];fontFamily=Times New Roman;fontSize=14;" vertex="1" connectable="0" parent="G8gflZm_HVs2Sd7vuM_G-18">
          <mxGeometry x="0.26" y="2" relative="1" as="geometry">
            <mxPoint x="-26" y="-8" as="offset" />
          </mxGeometry>
        </mxCell>
        <mxCell id="G8gflZm_HVs2Sd7vuM_G-20" value="" style="endArrow=classic;html=1;rounded=0;fontFamily=Times New Roman;fontSize=14;" edge="1" parent="1">
          <mxGeometry width="50" height="50" relative="1" as="geometry">
            <mxPoint x="280" y="620" as="sourcePoint" />
            <mxPoint x="400" y="500" as="targetPoint" />
            <Array as="points">
              <mxPoint x="320" y="580" />
              <mxPoint x="360" y="540" />
            </Array>
          </mxGeometry>
        </mxCell>
        <mxCell id="G8gflZm_HVs2Sd7vuM_G-21" value="1,292972 бит" style="edgeLabel;html=1;align=center;verticalAlign=middle;resizable=0;points=[];fontFamily=Times New Roman;fontSize=14;" vertex="1" connectable="0" parent="G8gflZm_HVs2Sd7vuM_G-20">
          <mxGeometry x="0.1111" y="-2" relative="1" as="geometry">
            <mxPoint x="32" y="-5" as="offset" />
          </mxGeometry>
        </mxCell>
        <mxCell id="G8gflZm_HVs2Sd7vuM_G-22" value="" style="endArrow=classic;html=1;rounded=0;entryX=1;entryY=0.5;entryDx=0;entryDy=0;fontFamily=Times New Roman;fontSize=14;" edge="1" parent="1" target="G8gflZm_HVs2Sd7vuM_G-13">
          <mxGeometry width="50" height="50" relative="1" as="geometry">
            <mxPoint x="360" y="740" as="sourcePoint" />
            <mxPoint x="405" y="690" as="targetPoint" />
          </mxGeometry>
        </mxCell>
        <mxCell id="G8gflZm_HVs2Sd7vuM_G-23" value="1,723534 бит" style="edgeLabel;html=1;align=center;verticalAlign=middle;resizable=0;points=[];fontFamily=Times New Roman;fontSize=14;" vertex="1" connectable="0" parent="G8gflZm_HVs2Sd7vuM_G-22">
          <mxGeometry x="-0.2472" y="-1" relative="1" as="geometry">
            <mxPoint x="14" y="15" as="offset" />
          </mxGeometry>
        </mxCell>
      </root>
    </mxGraphModel>
  </diagram>
</mxfile>
